<svg width="132" height="47" viewBox="0 0 132 47" fill="none" xmlns="http://www.w3.org/2000/svg">
<path d="M48.2268 22.7995C47.7625 22.6138 47.6232 22.2921 47.809 21.8344L52.6145 10.1737C52.7803 9.78904 53.0523 9.59668 53.4303 9.59668H53.4801C53.8582 9.61658 54.1169 9.80894 54.2561 10.1737L59.1114 21.8344C59.2972 22.2921 59.1645 22.6138 58.7135 22.7995C58.2558 22.9786 57.9374 22.8459 57.7583 22.4015L56.5942 19.6157H50.2963L49.172 22.4015C48.9863 22.8526 48.6712 22.9852 48.2268 22.7995ZM50.8734 18.1531H55.9973L53.4005 11.9149L50.8734 18.1531ZM64.1739 22.8592C63.3382 22.8592 62.6849 22.6867 62.2139 22.3418C61.743 21.9903 61.4478 21.463 61.3284 20.7599C61.2886 20.5211 61.3351 20.3321 61.4677 20.1928C61.607 20.0535 61.7994 19.9838 62.0448 19.9838C62.2769 19.9838 62.4461 20.0435 62.5522 20.1629C62.665 20.2823 62.7545 20.4614 62.8208 20.7002C62.8938 20.9721 63.0331 21.1578 63.2387 21.2573C63.4443 21.3502 63.7561 21.3966 64.1739 21.3966H67.4373C67.9879 21.3966 68.3593 21.3038 68.5517 21.1181C68.7507 20.9257 68.8502 20.5476 68.8502 19.9838C68.8502 19.42 68.7507 19.042 68.5517 18.8496C68.3593 18.6572 67.9879 18.5611 67.4373 18.5611H64.2237C63.3017 18.5611 62.6086 18.3322 62.1443 17.8746C61.68 17.4103 61.4478 16.7171 61.4478 15.7951C61.4478 14.8533 61.6733 14.1535 62.1244 13.6958C62.5821 13.2315 63.2818 12.9994 64.2237 12.9994H67.3378C68.8767 12.9994 69.7688 13.6593 70.0142 14.9793C70.054 15.2247 70.0043 15.4137 69.865 15.5464C69.7323 15.6791 69.5433 15.7454 69.2979 15.7454C69.0724 15.7454 68.9032 15.6857 68.7905 15.5663C68.6777 15.4469 68.5915 15.2778 68.5318 15.0589C68.4654 14.8267 68.3394 14.6709 68.1537 14.5913C67.9746 14.505 67.7027 14.4619 67.3378 14.4619H64.2237C63.6931 14.4619 63.3415 14.5482 63.1691 14.7206C62.9966 14.8931 62.9104 15.2512 62.9104 15.7951C62.9104 16.2992 62.9999 16.6442 63.179 16.8299C63.3647 17.009 63.713 17.0985 64.2237 17.0985H67.4373C68.4057 17.0985 69.1254 17.3373 69.5964 17.8149C70.0739 18.2924 70.3127 19.0154 70.3127 19.9838C70.3127 20.9522 70.0739 21.6752 69.5964 22.1528C69.1254 22.6237 68.4057 22.8592 67.4373 22.8592H64.1739ZM75.9888 22.8592C75.1531 22.8592 74.4997 22.6867 74.0288 22.3418C73.5579 21.9903 73.2627 21.463 73.1433 20.7599C73.1035 20.5211 73.1499 20.3321 73.2826 20.1928C73.4219 20.0535 73.6142 19.9838 73.8597 19.9838C74.0918 19.9838 74.2609 20.0435 74.3671 20.1629C74.4798 20.2823 74.5694 20.4614 74.6357 20.7002C74.7087 20.9721 74.848 21.1578 75.0536 21.2573C75.2592 21.3502 75.5709 21.3966 75.9888 21.3966H79.2522C79.8027 21.3966 80.1742 21.3038 80.3665 21.1181C80.5655 20.9257 80.665 20.5476 80.665 19.9838C80.665 19.42 80.5655 19.042 80.3665 18.8496C80.1742 18.6572 79.8027 18.5611 79.2522 18.5611H76.0386C75.1166 18.5611 74.4235 18.3322 73.9592 17.8746C73.4948 17.4103 73.2627 16.7171 73.2627 15.7951C73.2627 14.8533 73.4882 14.1535 73.9393 13.6958C74.3969 13.2315 75.0967 12.9994 76.0386 12.9994H79.1527C80.6916 12.9994 81.5837 13.6593 81.8291 14.9793C81.8689 15.2247 81.8192 15.4137 81.6799 15.5464C81.5472 15.6791 81.3582 15.7454 81.1127 15.7454C80.8872 15.7454 80.7181 15.6857 80.6053 15.5663C80.4926 15.4469 80.4063 15.2778 80.3466 15.0589C80.2803 14.8267 80.1543 14.6709 79.9686 14.5913C79.7895 14.505 79.5175 14.4619 79.1527 14.4619H76.0386C75.5079 14.4619 75.1564 14.5482 74.9839 14.7206C74.8115 14.8931 74.7253 15.2512 74.7253 15.7951C74.7253 16.2992 74.8148 16.6442 74.9939 16.8299C75.1796 17.009 75.5278 17.0985 76.0386 17.0985H79.2522C80.2206 17.0985 80.9403 17.3373 81.4112 17.8149C81.8888 18.2924 82.1276 19.0154 82.1276 19.9838C82.1276 20.9522 81.8888 21.6752 81.4112 22.1528C80.9403 22.6237 80.2206 22.8592 79.2522 22.8592H75.9888ZM86.0029 11.3179C85.4324 11.3179 85.1472 11.0261 85.1472 10.4424V9.90512C85.1472 9.33468 85.4324 9.04947 86.0029 9.04947H86.5401C87.0907 9.04947 87.3659 9.33468 87.3659 9.90512V10.4424C87.3659 11.0261 87.0907 11.3179 86.5401 11.3179H86.0029ZM86.2715 22.8691C85.7807 22.8691 85.5352 22.6237 85.5352 22.1329V13.7356C85.5352 13.2514 85.7807 13.0093 86.2715 13.0093C86.7557 13.0093 86.9978 13.2514 86.9978 13.7356V22.1329C86.9978 22.6237 86.7557 22.8691 86.2715 22.8691ZM93.3537 26.8489C92.5578 26.8489 91.9376 26.6864 91.4932 26.3614C91.0488 26.0364 90.7702 25.5389 90.6575 24.869C90.6177 24.6235 90.6608 24.4312 90.7868 24.2919C90.9195 24.1526 91.1118 24.083 91.3639 24.083C91.5894 24.083 91.7552 24.1427 91.8613 24.2621C91.9675 24.3814 92.0537 24.5605 92.12 24.7993C92.1863 25.0248 92.3124 25.1774 92.4981 25.257C92.6904 25.3432 92.9757 25.3863 93.3537 25.3863H97.0549C97.5789 25.3863 97.9238 25.2968 98.0896 25.1177C98.2621 24.9452 98.3483 24.6003 98.3483 24.083V21.5956C98.01 22.0069 97.5723 22.3219 97.035 22.5408C96.4977 22.7597 95.8676 22.8691 95.1446 22.8691H94.3885C93.095 22.8691 92.1366 22.5607 91.5131 21.9438C90.8962 21.327 90.5878 20.3752 90.5878 19.0884V16.8C90.5878 15.4933 90.8929 14.5349 91.5032 13.9247C92.12 13.3144 93.0818 13.0093 94.3885 13.0093H96.0202C96.5508 13.0093 97.0085 13.0856 97.3932 13.2382C97.7779 13.3841 98.0963 13.6129 98.3483 13.9247V13.7356C98.3483 13.2514 98.5937 13.0093 99.0846 13.0093C99.5688 13.0093 99.8109 13.2514 99.8109 13.7356V24.083C99.8109 25.0248 99.5854 25.7213 99.1343 26.1723C98.6899 26.6234 97.9968 26.8489 97.0549 26.8489H93.3537ZM94.3885 21.4066H95.1446C96.0732 21.4066 96.8393 21.2806 97.4429 21.0285C98.0465 20.7698 98.3483 20.3718 98.3483 19.8346V16.0737C98.3483 15.4635 98.1493 15.0456 97.7514 14.8201C97.3534 14.588 96.7763 14.4719 96.0202 14.4719H94.3885C93.4997 14.4719 92.8861 14.6344 92.5478 14.9594C92.2162 15.2844 92.0504 15.898 92.0504 16.8V19.0884C92.0504 19.9639 92.2162 20.5708 92.5478 20.9091C92.8795 21.2408 93.493 21.4066 94.3885 21.4066ZM104.363 22.8691C103.872 22.8691 103.627 22.6237 103.627 22.1329V13.7356C103.627 13.2514 103.872 13.0093 104.363 13.0093C104.847 13.0093 105.089 13.2514 105.089 13.7356V14.2729C105.766 13.4305 106.837 13.0093 108.303 13.0093H108.86C110.154 13.0093 111.109 13.3177 111.726 13.9346C112.342 14.5515 112.651 15.5066 112.651 16.8V22.1329C112.651 22.6237 112.409 22.8691 111.925 22.8691C111.434 22.8691 111.188 22.6237 111.188 22.1329V16.8C111.188 15.9046 111.019 15.2944 110.681 14.9693C110.349 14.6377 109.742 14.4719 108.86 14.4719H108.303C107.427 14.4719 106.694 14.588 106.104 14.8201C105.514 15.0456 105.176 15.4038 105.089 15.8946V22.1329C105.089 22.6237 104.847 22.8691 104.363 22.8691Z" fill="white"/>
<path d="M116.049 37.793C115.803 37.793 115.617 37.7333 115.491 37.6139C115.372 37.4879 115.312 37.3021 115.312 37.0567V25.2667C115.312 25.0147 115.372 24.8289 115.491 24.7096C115.617 24.5902 115.803 24.5305 116.049 24.5305C116.294 24.5305 116.476 24.5902 116.596 24.7096C116.715 24.8289 116.775 25.0147 116.775 25.2667V37.0567C116.775 37.3021 116.715 37.4879 116.596 37.6139C116.476 37.7333 116.294 37.793 116.049 37.793ZM124.733 37.793C124.494 37.793 124.311 37.7333 124.185 37.6139C124.059 37.4879 123.996 37.3054 123.996 37.0667V25.993H120.017C119.778 25.993 119.595 25.9333 119.469 25.8139C119.343 25.6879 119.28 25.5055 119.28 25.2667C119.28 25.0279 119.343 24.8455 119.469 24.7195C119.595 24.5935 119.778 24.5305 120.017 24.5305H129.449C129.687 24.5305 129.867 24.5935 129.986 24.7195C130.112 24.8455 130.175 25.0279 130.175 25.2667C130.175 25.5055 130.112 25.6879 129.986 25.8139C129.867 25.9333 129.687 25.993 129.449 25.993H125.459V37.0667C125.459 37.2922 125.396 37.4713 125.27 37.6039C125.144 37.73 124.965 37.793 124.733 37.793Z" fill="white"/>
<path d="M46.9831 0H0V46.9831H46.9831V0Z" fill="white"/>
<path d="M14.5324 24.1476L17.4551 22.462L15.8237 19.6379H31.1667L23.4977 32.9256L21.8663 30.0966L18.9436 31.7871L23.4977 39.6731L37.0121 16.2617H9.97827L14.5324 24.1476Z" fill="#414042"/>
</svg>
