<svg width="20" height="20" viewBox="0 0 20 20" fill="none" xmlns="http://www.w3.org/2000/svg">
<path d="M19.625 1.125V14.25C19.625 14.5484 19.5065 14.8345 19.2955 15.0455C19.0845 15.2565 18.7984 15.375 18.5 15.375C18.2016 15.375 17.9155 15.2565 17.7045 15.0455C17.4935 14.8345 17.375 14.5484 17.375 14.25V2.25H5.375C5.07663 2.25 4.79048 2.13147 4.5795 1.9205C4.36853 1.70952 4.25 1.42337 4.25 1.125C4.25 0.826631 4.36853 0.540483 4.5795 0.329505C4.79048 0.118526 5.07663 0 5.375 0H18.5C18.7984 0 19.0845 0.118526 19.2955 0.329505C19.5065 0.540483 19.625 0.826631 19.625 1.125ZM15.875 4.875V18C15.875 18.2984 15.7565 18.5845 15.5455 18.7955C15.3345 19.0065 15.0484 19.125 14.75 19.125H1.625C1.32663 19.125 1.04048 19.0065 0.829505 18.7955C0.618526 18.5845 0.5 18.2984 0.5 18V4.875C0.5 4.57663 0.618526 4.29048 0.829505 4.0795C1.04048 3.86853 1.32663 3.75 1.625 3.75H14.75C15.0484 3.75 15.3345 3.86853 15.5455 4.0795C15.7565 4.29048 15.875 4.57663 15.875 4.875ZM13.625 6H2.75V16.875H13.625V6Z" fill="#3E3693"/>
</svg>
