<svg width="25" height="24" viewBox="0 0 25 24" fill="none" xmlns="http://www.w3.org/2000/svg">
<g clip-path="url(#clip0_4813_21824)">
<path d="M19.5 17V19H7.5V17C7.5 17 7.5 13 13.5 13C19.5 13 19.5 17 19.5 17ZM16.5 8C16.5 7.40666 16.3241 6.82664 15.9944 6.33329C15.6648 5.83994 15.1962 5.45543 14.6481 5.22836C14.0999 5.0013 13.4967 4.94189 12.9147 5.05765C12.3328 5.1734 11.7982 5.45912 11.3787 5.87868C10.9591 6.29824 10.6734 6.83279 10.5576 7.41473C10.4419 7.99667 10.5013 8.59987 10.7284 9.14805C10.9554 9.69623 11.3399 10.1648 11.8333 10.4944C12.3266 10.8241 12.9067 11 13.5 11C14.2956 11 15.0587 10.6839 15.6213 10.1213C16.1839 9.55871 16.5 8.79565 16.5 8ZM19.7 13.06C20.2466 13.5643 20.6873 14.1724 20.9964 14.8489C21.3054 15.5254 21.4766 16.2566 21.5 17V19H24.5V17C24.5 17 24.5 13.55 19.7 13.06ZM18.5 5C18.1979 5.00018 17.8976 5.04741 17.61 5.14C18.1951 5.97897 18.5087 6.97718 18.5087 8C18.5087 9.02282 18.1951 10.021 17.61 10.86C17.8976 10.9526 18.1979 10.9998 18.5 11C19.2956 11 20.0587 10.6839 20.6213 10.1213C21.1839 9.55871 21.5 8.79565 21.5 8C21.5 7.20435 21.1839 6.44129 20.6213 5.87868C20.0587 5.31607 19.2956 5 18.5 5ZM8.5 10H5.5V7H3.5V10H0.5V12H3.5V15H5.5V12H8.5V10Z" fill="#3E3693"/>
</g>
<defs>
<clipPath id="clip0_4813_21824">
<rect width="24" height="24" fill="white" transform="translate(0.5)"/>
</clipPath>
</defs>
</svg>
