<svg width="590" height="522" viewBox="0 0 590 522" fill="none" xmlns="http://www.w3.org/2000/svg">
<mask id="mask0_369_5319" style="mask-type:luminance" maskUnits="userSpaceOnUse" x="0" y="0" width="590" height="523">
<path d="M0 0H590V523H0V0Z" fill="white"/>
</mask>
<g mask="url(#mask0_369_5319)">
<g opacity="0.2">
<path d="M299.023 257.902L342.395 227.381L342.396 177.622L466.579 90.2344L466.316 89.6787L341.869 177.253L341.868 227.012L298.76 257.346L299.023 257.902Z" fill="#42E8DF"/>
<path d="M354.941 168.61L354.942 123.047L407.844 85.8203L407.58 85.2646L354.416 122.677L354.414 168.61H354.941Z" fill="#42E8DF"/>
<path d="M307.154 263.625L349.194 234.042L422.52 234.041L486.791 188.814L486.65 188.172L422.378 233.399L349.052 233.4L306.892 263.07L307.154 263.625Z" fill="#42E8DF"/>
<path d="M244.636 263.624L244.899 263.069L160.059 203.366L109.543 203.367L77.9699 181.15V145.102H77.4434V181.52L77.5749 181.613L109.402 204.009L159.918 204.007L244.636 263.624Z" fill="#42E8DF"/>
<path d="M254.776 256.491L255.039 255.934L169.25 195.565L169.252 159.597L169.12 159.504L138.222 137.761L137.959 138.316L168.725 159.967L168.724 195.935L168.856 196.028L254.776 256.491Z" fill="#42E8DF"/>
<path d="M265.4 249.014L265.664 248.458L215.23 212.968V182.84L302.918 121.134L302.655 120.578L214.703 182.47V213.338L214.835 213.431L265.4 249.014Z" fill="#42E8DF"/>
<path d="M-7.50237 386.164H70.3839L126.461 346.701H172.837L236.767 301.713L236.503 301.157L172.696 346.06H126.32L70.2425 385.522H-7.36155L-41.6105 361.422L-41.8741 361.978L-7.50237 386.164Z" fill="#42E8DF"/>
<path d="M88.1205 358.698L115.812 339.211H169.035L229.544 296.631L229.28 296.075L168.894 338.569H115.671L87.8575 358.142L88.1205 358.698Z" fill="#42E8DF"/>
<path d="M201.622 316.094L201.885 315.538L157.441 284.262H125.556L104.966 298.752L105.229 299.308L125.697 284.904H157.3L201.622 316.094Z" fill="#42E8DF"/>
<path d="M81.1843 393.946L106.124 376.394V361.098H105.597V376.024L80.9207 393.39L81.1843 393.946Z" fill="#42E8DF"/>
<path d="M237.065 167.425H257.237L293.295 142.052L293.032 141.496L257.095 166.784H237.065V167.425Z" fill="#42E8DF"/>
<path d="M255.619 241.945H256.146V225.708L256.014 225.616L231.197 208.152V191.383H230.671V208.522L230.802 208.614L255.619 226.078V241.945Z" fill="#42E8DF"/>
<path d="M395.598 422.231L395.861 421.674L352.656 391.271L352.657 341.512L352.525 341.419L305.298 308.186L305.036 308.741L352.13 341.881L352.129 391.64L352.262 391.734L395.598 422.231Z" fill="#42E8DF"/>
<path d="M366.326 442.831L366.589 442.276L349.614 430.33V408.393L349.482 408.301L332.887 396.623L332.888 338.302L332.756 338.209L297.695 313.536L297.432 314.092L332.362 338.672L332.361 396.992L332.492 397.085L349.088 408.763V430.7L349.219 430.793L366.326 442.831Z" fill="#42E8DF"/>
<path d="M500.34 357.086L500.603 356.529L486.9 346.884H457.922L405.688 310.127L359.762 310.128L331.151 289.993L330.887 290.55L359.621 310.77L405.547 310.769L457.781 347.526H486.758L500.34 357.086Z" fill="#42E8DF"/>
<path d="M470.731 331.907L470.994 331.351L452.685 318.468H417.471V319.11H452.544L470.731 331.907Z" fill="#42E8DF"/>
<path d="M462.612 427.507L462.875 426.951L395.825 379.766V355.007L395.693 354.914L317.294 299.744L317.031 300.3L395.299 355.377V380.136L395.43 380.229L462.612 427.507Z" fill="#42E8DF"/>
<path d="M461.582 428.87C462.5 429.517 463.99 429.517 464.909 428.87C465.828 428.224 465.828 427.175 464.909 426.529C463.99 425.882 462.5 425.882 461.582 426.529C460.664 427.175 460.664 428.224 461.582 428.87Z" fill="#42E8DF"/>
<path d="M393.635 423.527C394.553 424.173 396.042 424.173 396.961 423.527C397.88 422.88 397.88 421.832 396.961 421.185C396.042 420.539 394.553 420.539 393.635 421.185C392.716 421.832 392.716 422.88 393.635 423.527Z" fill="#42E8DF"/>
<path d="M365.688 444.232C366.607 444.878 368.096 444.878 369.015 444.232C369.933 443.585 369.933 442.537 369.015 441.89C368.096 441.244 366.607 441.244 365.688 441.89C364.77 442.537 364.77 443.585 365.688 444.232Z" fill="#42E8DF"/>
<path d="M315.56 269.539L345.819 248.247L430.78 248.245L492.236 204.998L491.973 204.442L430.638 247.604L345.677 247.605L315.297 268.983L315.56 269.539Z" fill="#42E8DF"/>
<path d="M384.258 260.476L431.164 260.474V259.832L384.399 259.834L367.084 247.647L366.82 248.203L384.258 260.476Z" fill="#42E8DF"/>
<path d="M258.587 479.74L258.588 444.626L258.456 444.533L190.896 396.991L190.897 359.406L254.824 314.422L254.561 313.865L190.37 359.037L190.369 397.361L190.501 397.455L258.061 444.997L258.06 479.74H258.587Z" fill="#42E8DF"/>
<path d="M271.855 435.208L272.118 434.651L248.678 418.156H220.986V418.798H248.537L271.855 435.208Z" fill="#42E8DF"/>
<path d="M216.859 353.917L263.905 320.811L263.642 320.255L216.597 353.36L216.859 353.917Z" fill="#42E8DF"/>
<path d="M314.638 437.068L314.64 339.64L314.509 339.546L287.62 320.625L287.357 321.181L314.114 340.009L314.112 437.068H314.638Z" fill="#42E8DF"/>
<path d="M312.536 439.556C313.454 440.203 314.943 440.203 315.862 439.556C316.781 438.909 316.781 437.861 315.862 437.214C314.943 436.568 313.454 436.568 312.536 437.214C311.617 437.861 311.617 438.909 312.536 439.556Z" fill="#42E8DF"/>
<path d="M300.763 423.024L300.764 389.39L314.508 379.718L314.245 379.162L300.238 389.02L300.236 423.024H300.763Z" fill="#42E8DF"/>
<path d="M488.779 301.015L489.042 300.459L446.75 270.699H381.619L360.021 255.501H349.379L322.757 274.235L323.02 274.79L349.52 256.143H359.88L381.477 271.341H446.609L488.779 301.015Z" fill="#42E8DF"/>
<path d="M201.045 365.36H218.17L272.692 326.994L272.429 326.438L218.03 364.718H201.045V365.36Z" fill="#42E8DF"/>
<path d="M247.171 381.268L291.926 349.775V336.364L291.794 336.271L278.592 326.979L278.328 327.536L291.399 336.733V349.405L246.908 380.713L247.171 381.268Z" fill="#42E8DF"/>
<path d="M244.226 371.503L264.076 357.534H280.709V356.893H263.935L243.963 370.947L244.226 371.503Z" fill="#42E8DF"/>
<path d="M244.581 401.516L265.337 386.91V375.322L288.658 358.912V351.889H288.131V358.542L264.811 374.953V386.54L244.319 400.96L244.581 401.516Z" fill="#42E8DF"/>
<path d="M242.43 372.397C243.349 373.043 244.838 373.043 245.757 372.397C246.676 371.75 246.676 370.702 245.757 370.055C244.838 369.409 243.349 369.409 242.43 370.055C241.512 370.702 241.512 371.75 242.43 372.397Z" fill="#42E8DF"/>
<path d="M245.317 382.119C246.236 382.766 247.725 382.766 248.643 382.119C249.562 381.473 249.562 380.424 248.643 379.778C247.725 379.131 246.236 379.131 245.317 379.778C244.399 380.424 244.398 381.473 245.317 382.119Z" fill="#42E8DF"/>
<path d="M292.933 376.501C293.851 377.147 295.34 377.147 296.259 376.501C297.178 375.854 297.178 374.806 296.26 374.16C295.341 373.513 293.852 373.513 292.933 374.16C292.014 374.806 292.014 375.854 292.933 376.501Z" fill="#42E8DF"/>
<path d="M392.786 288.993C393.704 289.639 395.194 289.639 396.112 288.993C397.031 288.346 397.031 287.298 396.112 286.652C395.194 286.005 393.704 286.005 392.786 286.652C391.867 287.298 391.867 288.346 392.786 288.993Z" fill="#42E8DF"/>
<path d="M457.176 306.508C458.095 307.155 459.585 307.155 460.503 306.508C461.422 305.862 461.422 304.814 460.503 304.168C459.585 303.521 458.095 303.521 457.176 304.168C456.258 304.814 456.258 305.862 457.176 306.508Z" fill="#42E8DF"/>
<path d="M372.381 276.974C373.3 277.621 374.79 277.621 375.708 276.974C376.626 276.328 376.626 275.28 375.708 274.633C374.79 273.987 373.3 273.987 372.381 274.633C371.463 275.28 371.463 276.328 372.381 276.974Z" fill="#42E8DF"/>
<path d="M365.105 296.431C366.024 297.078 367.513 297.078 368.432 296.431C369.35 295.785 369.35 294.737 368.432 294.09C367.514 293.444 366.024 293.444 365.105 294.09C364.187 294.737 364.187 295.785 365.105 296.431Z" fill="#42E8DF"/>
<path d="M256.66 480.911C257.579 481.557 259.068 481.557 259.987 480.911C260.906 480.264 260.906 479.215 259.987 478.569C259.069 477.922 257.579 477.922 256.66 478.569C255.742 479.215 255.742 480.264 256.66 480.911Z" fill="#42E8DF"/>
<path d="M270.324 436.101C271.242 436.747 272.731 436.747 273.65 436.101C274.569 435.454 274.569 434.406 273.65 433.759C272.731 433.113 271.242 433.113 270.324 433.759C269.405 434.406 269.405 435.454 270.324 436.101Z" fill="#42E8DF"/>
<path d="M48.4554 476.87C49.3738 477.517 50.8632 477.517 51.7816 476.87C52.7005 476.224 52.701 475.175 51.7826 474.529C50.8637 473.882 49.3738 473.882 48.4554 474.529C47.537 475.175 47.537 476.224 48.4554 476.87Z" fill="#42E8DF"/>
<path d="M129.733 478.956C130.651 479.602 132.141 479.602 133.059 478.956C133.978 478.309 133.978 477.261 133.059 476.615C132.141 475.968 130.651 475.968 129.733 476.615C128.815 477.261 128.815 478.309 129.733 478.956Z" fill="#42E8DF"/>
<path d="M154.089 411.422C155.007 412.068 156.497 412.068 157.415 411.422C158.334 410.775 158.334 409.727 157.415 409.081C156.497 408.434 155.007 408.434 154.089 409.081C153.171 409.727 153.171 410.775 154.089 411.422Z" fill="#42E8DF"/>
<path d="M429.5 261.324C430.419 261.97 431.908 261.97 432.826 261.324C433.745 260.677 433.745 259.629 432.826 258.983C431.908 258.336 430.419 258.336 429.5 258.983C428.582 259.629 428.581 260.677 429.5 261.324Z" fill="#42E8DF"/>
<path d="M490.441 205.891C491.359 206.538 492.849 206.538 493.768 205.891C494.686 205.245 494.686 204.197 493.768 203.55C492.849 202.904 491.359 202.904 490.441 203.55C489.522 204.197 489.522 205.245 490.441 205.891Z" fill="#42E8DF"/>
<path d="M486.017 188.927C486.936 189.573 488.426 189.573 489.344 188.927C490.263 188.28 490.263 187.233 489.344 186.586C488.426 185.94 486.936 185.94 486.017 186.586C485.099 187.233 485.099 188.28 486.017 188.927Z" fill="#42E8DF"/>
<path d="M406.43 86.9793C407.348 87.6258 408.837 87.6258 409.756 86.9793C410.675 86.3328 410.675 85.2855 409.756 84.6397C408.838 83.9925 407.348 83.9925 406.43 84.6397C405.511 85.2855 405.511 86.3328 406.43 86.9793Z" fill="#42E8DF"/>
<path d="M242.786 402.409C243.705 403.055 245.194 403.055 246.112 402.409C247.031 401.762 247.031 400.713 246.112 400.067C245.194 399.42 243.705 399.42 242.786 400.067C241.868 400.713 241.868 401.762 242.786 402.409Z" fill="#42E8DF"/>
<path d="M298.836 424.195C299.754 424.841 301.244 424.841 302.162 424.195C303.081 423.548 303.081 422.5 302.162 421.853C301.244 421.207 299.754 421.207 298.836 421.853C297.918 422.5 297.918 423.548 298.836 424.195Z" fill="#42E8DF"/>
<path d="M469.199 332.799C470.117 333.446 471.607 333.446 472.526 332.799C473.444 332.153 473.444 331.105 472.526 330.459C471.608 329.812 470.117 329.812 469.199 330.459C468.28 331.105 468.28 332.153 469.199 332.799Z" fill="#42E8DF"/>
<path d="M427.106 354.531C428.024 355.177 429.513 355.177 430.432 354.531C431.351 353.884 431.351 352.836 430.432 352.189C429.513 351.542 428.024 351.542 427.106 352.189C426.187 352.836 426.187 353.884 427.106 354.531Z" fill="#42E8DF"/>
<path d="M487.21 301.934C488.128 302.581 489.618 302.581 490.536 301.934C491.455 301.288 491.455 300.24 490.537 299.593C489.618 298.947 488.129 298.947 487.21 299.593C486.291 300.24 486.291 301.288 487.21 301.934Z" fill="#42E8DF"/>
<path d="M199.382 366.21C200.3 366.857 201.789 366.857 202.708 366.21C203.627 365.564 203.627 364.515 202.709 363.869C201.79 363.222 200.3 363.222 199.382 363.869C198.463 364.515 198.463 365.564 199.382 366.21Z" fill="#42E8DF"/>
<path d="M104.506 299.445C105.425 300.092 106.914 300.092 107.832 299.445C108.751 298.799 108.751 297.751 107.832 297.105C106.914 296.458 105.425 296.458 104.506 297.105C103.588 297.751 103.588 298.799 104.506 299.445Z" fill="#42E8DF"/>
<path d="M144.668 258.054C145.586 258.701 147.077 258.701 147.995 258.054C148.914 257.408 148.914 256.36 147.995 255.713C147.077 255.067 145.587 255.067 144.668 255.713C143.749 256.36 143.749 257.408 144.668 258.054Z" fill="#42E8DF"/>
<path d="M167.373 272.393C168.292 273.039 169.782 273.039 170.701 272.393C171.619 271.746 171.619 270.698 170.701 270.052C169.782 269.406 168.292 269.406 167.373 270.052C166.455 270.698 166.455 271.746 167.373 272.393Z" fill="#42E8DF"/>
<path d="M189.186 249.955C190.105 250.601 191.595 250.601 192.514 249.955C193.432 249.308 193.432 248.26 192.514 247.614C191.595 246.967 190.105 246.967 189.186 247.614C188.268 248.26 188.268 249.308 189.186 249.955Z" fill="#42E8DF"/>
<path d="M229.271 192.553C230.189 193.199 231.679 193.199 232.598 192.553C233.516 191.906 233.516 190.859 232.598 190.212C231.679 189.566 230.189 189.566 229.271 190.212C228.352 190.859 228.352 191.906 229.271 192.553Z" fill="#42E8DF"/>
<path d="M75.5567 146.614C76.4751 147.261 77.9645 147.261 78.8829 146.614C79.8018 145.968 79.8024 144.92 78.884 144.274C77.965 143.627 76.4751 143.627 75.5567 144.274C74.6383 144.92 74.6383 145.968 75.5567 146.614Z" fill="#42E8DF"/>
<path d="M136.427 139.209C137.345 139.855 138.836 139.855 139.754 139.209C140.673 138.562 140.673 137.515 139.754 136.869C138.836 136.222 137.346 136.222 136.427 136.869C135.509 137.515 135.509 138.562 136.427 139.209Z" fill="#42E8DF"/>
<path d="M257.262 196.497C258.181 197.144 259.671 197.144 260.59 196.497C261.508 195.851 261.508 194.803 260.59 194.157C259.671 193.51 258.181 193.51 257.262 194.157C256.344 194.803 256.344 195.851 257.262 196.497Z" fill="#42E8DF"/>
<path d="M260.351 175.598C261.27 176.244 262.759 176.244 263.677 175.598C264.596 174.951 264.596 173.903 263.677 173.257C262.759 172.611 261.27 172.611 260.351 173.257C259.433 173.903 259.432 174.951 260.351 175.598Z" fill="#42E8DF"/>
<path d="M308.543 150.924C309.462 151.57 310.951 151.57 311.869 150.924C312.788 150.277 312.788 149.23 311.869 148.584C310.951 147.937 309.462 147.937 308.543 148.584C307.625 149.23 307.625 150.277 308.543 150.924Z" fill="#42E8DF"/>
<path d="M291.5 142.943C292.418 143.59 293.908 143.59 294.826 142.943C295.745 142.297 295.745 141.25 294.826 140.603C293.908 139.957 292.418 139.957 291.5 140.603C290.581 141.25 290.581 142.297 291.5 142.943Z" fill="#42E8DF"/>
<path d="M464.784 91.126C465.703 91.7725 467.193 91.7725 468.111 91.126C469.03 90.4794 469.03 89.4315 468.111 88.7857C467.193 88.1392 465.703 88.1392 464.784 88.7857C463.866 89.4315 463.866 90.4794 464.784 91.126Z" fill="#42E8DF"/>
<path d="M301.123 122.026C302.042 122.673 303.532 122.673 304.45 122.026C305.369 121.38 305.369 120.333 304.45 119.686C303.532 119.04 302.042 119.04 301.123 119.686C300.205 120.333 300.205 121.38 301.123 122.026Z" fill="#42E8DF"/>
<path d="M198.747 296.155C199.665 296.801 201.154 296.801 202.073 296.155C202.992 295.508 202.992 294.461 202.073 293.814C201.155 293.167 199.665 293.167 198.747 293.814C197.828 294.461 197.828 295.508 198.747 296.155Z" fill="#42E8DF"/>
<path d="M310.958 226.862C311.876 227.509 313.366 227.509 314.284 226.862C315.203 226.215 315.203 225.168 314.284 224.521C313.366 223.875 311.876 223.875 310.958 224.521C310.039 225.168 310.039 226.215 310.958 226.862Z" fill="#42E8DF"/>
<path d="M407.663 186.03C408.582 186.677 410.071 186.677 410.99 186.03C411.908 185.384 411.908 184.336 410.99 183.69C410.071 183.043 408.582 183.043 407.663 183.69C406.745 184.336 406.745 185.384 407.663 186.03Z" fill="#42E8DF"/>
<path d="M478.39 141.498C479.309 142.145 480.799 142.145 481.717 141.498C482.636 140.852 482.636 139.804 481.717 139.158C480.799 138.511 479.309 138.511 478.39 139.158C477.472 139.804 477.472 140.852 478.39 141.498Z" fill="#42E8DF"/>
<path d="M456.277 134.298C457.195 134.944 458.685 134.944 459.604 134.298C460.523 133.651 460.523 132.604 459.604 131.958C458.685 131.311 457.195 131.311 456.277 131.958C455.359 132.604 455.359 133.651 456.277 134.298Z" fill="#42E8DF"/>
<path d="M158.986 299.095C159.904 299.742 161.393 299.742 162.312 299.095C163.231 298.449 163.231 297.401 162.313 296.754C161.395 296.108 159.904 296.108 158.986 296.754C158.067 297.401 158.067 298.449 158.986 299.095Z" fill="#42E8DF"/>
<path d="M79.3891 394.837C80.3075 395.484 81.7969 395.484 82.7153 394.837C83.6342 394.191 83.6348 393.142 82.7164 392.496C81.7974 391.849 80.3075 391.849 79.3891 392.496C78.4707 393.142 78.4707 394.191 79.3891 394.837Z" fill="#42E8DF"/>
<path d="M47.4099 292.544C48.3283 293.19 49.8182 293.19 50.7371 292.544C51.6555 291.897 51.6555 290.849 50.7371 290.203C49.8187 289.556 48.3283 289.556 47.4099 290.203C46.4915 290.849 46.4915 291.897 47.4099 292.544Z" fill="#42E8DF"/>
<path d="M86.3259 359.59C87.2448 360.237 88.7348 360.237 89.6532 359.59C90.5715 358.944 90.5715 357.895 89.6532 357.249C88.7348 356.602 87.2448 356.602 86.3259 357.249C85.4075 357.895 85.4075 358.944 86.3259 359.59Z" fill="#42E8DF"/>
<path d="M215.064 354.81C215.982 355.457 217.472 355.457 218.39 354.81C219.309 354.164 219.309 353.116 218.39 352.469C217.472 351.823 215.982 351.823 215.064 352.469C214.146 353.116 214.146 354.164 215.064 354.81Z" fill="#42E8DF"/>
<path d="M294.786 375.65L314.507 361.771L314.244 361.216L294.524 375.093L294.786 375.65Z" fill="#42E8DF"/>
<path d="M210.19 302.191H221.571V301.549H210.331L200.274 294.472L200.011 295.027L210.19 302.191Z" fill="#42E8DF"/>
<path d="M146.463 257.161L173.98 237.797H192.496L216.902 254.972H232.408V254.33H217.043L192.637 237.155H173.838L146.2 256.605L146.463 257.161Z" fill="#42E8DF"/>
<path d="M218.45 282.054L218.713 281.498L190.991 261.99H181.631L169.372 270.617L169.635 271.173L181.772 262.632H190.85L218.45 282.054Z" fill="#42E8DF"/>
<path d="M210.758 276.455H211.285V262.794L211.153 262.702L190.982 248.505L190.718 249.061L210.758 263.164V276.455Z" fill="#42E8DF"/>
<path d="M350.776 304.495H371.283L394.58 288.101L394.317 287.545L371.141 303.853H350.776V304.495Z" fill="#42E8DF"/>
<path d="M50.2494 475.978L121.094 426.125V394.558L244.897 307.437L244.635 306.881L120.567 394.188V425.755L49.9869 475.422L50.2494 475.978Z" fill="#42E8DF"/>
<path d="M373.96 276.049L374.223 275.493L356.552 263.059L349.285 263.06L339.924 269.646H329.347V270.288H340.065L349.426 263.702L356.411 263.7L373.96 276.049Z" fill="#42E8DF"/>
<path d="M291.8 252.821L325.335 229.221L325.336 201.945L325.204 201.851L287.524 175.337V166.086L310.338 150.032L310.074 149.476L286.998 165.717V175.707L287.129 175.8L324.809 202.314L324.808 228.851L291.537 252.266L291.8 252.821Z" fill="#42E8DF"/>
<path d="M299.242 247.027H299.769V235.107L312.753 225.97L312.49 225.414L299.242 234.738V247.027Z" fill="#42E8DF"/>
<path d="M368.114 233.999L447.396 178.206V163.68L480.09 140.674L479.827 140.117L446.869 163.31V177.838L367.851 233.443L368.114 233.999Z" fill="#42E8DF"/>
<path d="M396.613 193.621H397.139V176.283L458.073 133.406L457.809 132.85L396.613 175.913V193.621Z" fill="#42E8DF"/>
<path d="M348.99 233.814L389.06 205.616V199.491L409.457 185.138L409.195 184.582L388.535 199.122V205.247L348.727 233.258L348.99 233.814Z" fill="#42E8DF"/>
<path d="M155.884 410.53L179.586 393.849V375.39L190.765 367.525L190.502 366.969L179.06 375.02V393.481L155.621 409.974L155.884 410.53Z" fill="#42E8DF"/>
<path d="M176.706 309.595H192.44V308.953H176.847L160.781 297.646L160.518 298.202L176.706 309.595Z" fill="#42E8DF"/>
<path d="M106.69 332.289H178.802V331.647H106.831L49.7743 291.495L49.5107 292.051L106.69 332.289Z" fill="#42E8DF"/>
<path d="M282.187 246.053H282.714V211.695L282.581 211.602L259.438 195.316L259.174 195.872L282.187 212.066V246.053Z" fill="#42E8DF"/>
<path d="M282.582 226.17L299.605 214.191V200.51L299.474 200.416L262.146 174.149L261.883 174.705L299.079 200.88V213.82L282.319 225.615L282.582 226.17Z" fill="#42E8DF"/>
<path d="M428.637 353.638L428.9 353.082L386.774 323.438H350.893V324.079H386.634L428.637 353.638Z" fill="#42E8DF"/>
<path d="M433.451 305.659H458.84V305.017H433.592L422.082 296.918L381.067 296.919V297.561L421.942 297.56L433.451 305.659Z" fill="#42E8DF"/>
<path d="M366.498 295.44L366.761 294.885L347.571 281.38H333.106V282.022H347.43L366.498 295.44Z" fill="#42E8DF"/>
<path d="M131.528 478.063L159.864 458.124V428.528L197.394 402.119L197.13 401.563L159.337 428.158V457.754L131.265 477.507L131.528 478.063Z" fill="#42E8DF"/>
<path d="M499.94 358.074C500.858 358.72 502.348 358.72 503.266 358.074C504.185 357.427 504.185 356.378 503.266 355.732C502.348 355.085 500.858 355.085 499.94 355.732C499.021 356.378 499.021 357.427 499.94 358.074Z" fill="#42E8DF"/>
</g>
<mask id="mask1_369_5319" style="mask-type:luminance" maskUnits="userSpaceOnUse" x="-50" y="267" width="318" height="187">
<path d="M165.189 267.49L267.659 314.549L-44.4676 453.47L-49.6733 341.626L165.189 267.49Z" fill="white"/>
</mask>
<g mask="url(#mask1_369_5319)">
<path d="M-7.50292 386.163H70.3834L126.461 346.7H172.837L236.766 301.712L236.503 301.156L172.696 346.059H126.32L70.242 385.521H-7.3621L-41.6111 361.421L-41.8747 361.977L-7.50292 386.163Z" fill="#42E8DF"/>
</g>
<mask id="mask2_369_5319" style="mask-type:luminance" maskUnits="userSpaceOnUse" x="34" y="126" width="156" height="190">
<path d="M78.1995 126.879L189.488 187.847L171.184 315.908L34.0717 171.909L78.1995 126.879Z" fill="white"/>
</mask>
<g mask="url(#mask2_369_5319)">
<path d="M244.636 263.625L244.899 263.069L160.059 203.366L109.543 203.368L77.9699 181.15V145.102H77.4434V181.52L77.5749 181.613L109.402 204.01L159.918 204.008L244.636 263.625Z" fill="#42E8DF"/>
<path d="M75.5567 146.614C76.4751 147.261 77.9645 147.261 78.8829 146.614C79.8018 145.968 79.8024 144.92 78.884 144.274C77.965 143.627 76.4751 143.627 75.5567 144.274C74.6383 144.92 74.6383 145.968 75.5567 146.614Z" fill="#42E8DF"/>
</g>
<mask id="mask3_369_5319" style="mask-type:luminance" maskUnits="userSpaceOnUse" x="299" y="281" width="193" height="175">
<path d="M316.291 281.161L491.914 429.072L462.812 455.12L299.244 293.183L316.291 281.161Z" fill="white"/>
</mask>
<g mask="url(#mask3_369_5319)">
<path d="M462.612 427.507L462.875 426.951L395.825 379.766V355.007L395.693 354.914L317.294 299.744L317.031 300.3L395.299 355.377V380.136L395.43 380.229L462.612 427.507Z" fill="#42E8DF"/>
<path d="M461.582 428.869C462.5 429.516 463.99 429.516 464.909 428.869C465.828 428.223 465.828 427.174 464.909 426.528C463.99 425.881 462.5 425.881 461.582 426.528C460.664 427.174 460.664 428.223 461.582 428.869Z" fill="#42E8DF"/>
</g>
<mask id="mask4_369_5319" style="mask-type:luminance" maskUnits="userSpaceOnUse" x="303" y="48" width="176" height="197">
<path d="M452.187 48.4219L478.215 96.816L331.026 244.754L303.354 197.028L452.187 48.4219Z" fill="white"/>
</mask>
<g mask="url(#mask4_369_5319)">
<path d="M299.023 257.903L342.395 227.381L342.396 177.622L466.579 90.2344L466.316 89.6787L341.869 177.253L341.868 227.012L298.76 257.346L299.023 257.903Z" fill="#42E8DF"/>
<path d="M464.784 91.126C465.703 91.7725 467.193 91.7725 468.111 91.126C469.03 90.4794 469.03 89.4315 468.111 88.7857C467.193 88.1392 465.703 88.1392 464.784 88.7857C463.866 89.4315 463.866 90.4794 464.784 91.126Z" fill="#42E8DF"/>
</g>
<mask id="mask5_369_5319" style="mask-type:luminance" maskUnits="userSpaceOnUse" x="188" y="309" width="76" height="178">
<path d="M263.412 309.567V486.197H188.829V309.567H263.412Z" fill="white"/>
</mask>
<g mask="url(#mask5_369_5319)">
<path d="M256.66 480.91C257.579 481.556 259.068 481.556 259.987 480.91C260.906 480.263 260.906 479.214 259.987 478.568C259.069 477.921 257.579 477.921 256.66 478.568C255.742 479.214 255.742 480.263 256.66 480.91Z" fill="#42E8DF"/>
<path d="M258.587 479.739L258.588 444.626L258.456 444.532L190.896 396.99L190.897 359.405L254.824 314.421L254.561 313.864L190.37 359.036L190.369 397.36L190.501 397.454L258.061 444.996L258.06 479.739H258.587Z" fill="#42E8DF"/>
</g>
<mask id="mask6_369_5319" style="mask-type:luminance" maskUnits="userSpaceOnUse" x="335" y="225" width="182" height="93">
<mask id="mask7_369_5319" style="mask-type:alpha" maskUnits="userSpaceOnUse" x="335" y="225" width="182" height="93">
<path d="M362.868 225.393L516.025 276.125L489.114 317.534L335.958 260.791L362.868 225.393Z" fill="white"/>
</mask>
<g mask="url(#mask7_369_5319)">
<path d="M-124 1.33594H590V546.336H-124V1.33594Z" fill="white"/>
</g>
</mask>
<g mask="url(#mask6_369_5319)">
<path d="M487.21 300.598C488.128 301.245 489.618 301.245 490.536 300.598C491.455 299.952 491.455 298.904 490.537 298.257C489.618 297.611 488.129 297.611 487.21 298.257C486.291 298.904 486.291 299.952 487.21 300.598Z" fill="#42E8DF"/>
<path d="M361.772 257.305L381.499 270.996L446.57 270.663L486.982 298.881" stroke="#42E8E0"/>
</g>
<path d="M303.009 206.507L289.542 109.116L290.624 108.559L288.997 107.423L289 107.434C288.684 107.177 288.237 107.194 287.746 107.54L180.109 183.285C179.225 183.908 178.555 185.502 178.711 186.617L192.287 284.783C192.357 285.295 192.564 285.634 192.853 285.782L192.851 285.783L194.443 286.904L194.717 285.092L194.627 285.126L301.611 209.839C302.496 209.218 303.164 207.622 303.009 206.507Z" fill="#F4F5F8"/>
<path d="M303.301 211.021L195.663 286.766C194.833 287.35 194.121 287.012 193.975 285.964L180.4 187.798C180.245 186.683 180.913 185.087 181.797 184.466L289.435 108.721C290.266 108.136 290.977 108.473 291.123 109.522L304.698 207.688C304.853 208.804 304.185 210.398 303.301 211.021Z" fill="#F4F5F8"/>
<path d="M289.796 110.546L181.653 186.612L195.31 285.028L303.384 209.011L289.796 110.546Z" fill="#161616"/>
<path d="M370.961 257.496L365.088 261.235L306.186 219.785C305.2 219.092 303.479 219.179 302.341 219.98L200.753 291.468C199.781 290.806 195.347 288.208 195.347 288.208L197.498 292.467C197.498 292.467 197.505 292.461 197.506 292.459C197.595 292.763 197.787 293.047 198.108 293.272L260.143 336.927C261.128 337.62 262.85 337.533 263.987 336.733L367.945 263.576C368.413 263.248 368.698 262.85 368.817 262.446L368.826 262.453L370.961 257.496Z" fill="#E9EBF3"/>
<path d="M370.053 258.673L263.511 333.648C262.345 334.469 260.58 334.558 259.57 333.847L195.993 289.107C194.983 288.396 195.109 287.155 196.276 286.334L302.818 211.359C303.984 210.539 305.748 210.45 306.758 211.16L370.336 255.901C371.346 256.611 371.22 257.853 370.053 258.673Z" fill="#F4F5F8"/>
<path d="M370.053 258.091L263.51 333.067C262.344 333.887 260.58 333.977 259.57 333.266L195.993 288.525C195.637 288.275 195.43 287.958 195.353 287.617C195.24 288.169 195.439 288.718 195.993 289.108L259.57 333.848C260.58 334.558 262.344 334.469 263.51 333.649L370.053 258.674C370.809 258.141 371.12 257.434 370.977 256.808C370.883 257.263 370.58 257.72 370.053 258.091Z" fill="white"/>
<path d="M321.045 250.371L324.427 247.991C324.699 247.799 324.664 247.465 324.351 247.245L320.359 244.436C320.046 244.215 319.571 244.191 319.299 244.382L315.917 246.763C315.645 246.954 315.679 247.287 315.993 247.508L319.985 250.317C320.299 250.537 320.773 250.562 321.045 250.371Z" fill="#28283C"/>
<path d="M315.822 254.046L319.204 251.666C319.476 251.475 319.442 251.141 319.128 250.92L315.136 248.111C314.822 247.891 314.348 247.867 314.076 248.058L310.694 250.438C310.422 250.629 310.457 250.963 310.77 251.183L314.763 253.993C315.076 254.214 315.55 254.237 315.822 254.046Z" fill="#28283C"/>
<path d="M310.599 257.721L313.981 255.342C314.252 255.15 314.218 254.816 313.905 254.596L309.913 251.786C309.599 251.565 309.125 251.541 308.853 251.732L305.471 254.113C305.199 254.304 305.233 254.638 305.547 254.858L309.539 257.668C309.853 257.888 310.327 257.912 310.599 257.721Z" fill="#28283C"/>
<path d="M303.374 254.687L306.756 252.307C307.028 252.115 306.994 251.781 306.681 251.56L303.329 249.202C303.016 248.981 302.541 248.957 302.27 249.148L298.887 251.528C298.616 251.72 298.65 252.054 298.964 252.274L302.315 254.633C302.628 254.853 303.103 254.878 303.374 254.687Z" fill="#28283C"/>
<path d="M298.152 258.362L301.534 255.982C301.805 255.79 301.771 255.456 301.458 255.236L298.106 252.878C297.793 252.657 297.319 252.633 297.047 252.824L293.665 255.204C293.393 255.396 293.427 255.73 293.741 255.95L297.092 258.308C297.406 258.529 297.88 258.553 298.152 258.362Z" fill="#28283C"/>
<path d="M292.928 262.038L296.31 259.657C296.582 259.466 296.548 259.132 296.234 258.911L292.883 256.554C292.569 256.333 292.095 256.309 291.823 256.5L288.441 258.88C288.169 259.072 288.204 259.405 288.517 259.626L291.868 261.984C292.182 262.205 292.657 262.229 292.928 262.038Z" fill="#28283C"/>
<path d="M287.705 265.713L291.087 263.333C291.358 263.141 291.324 262.807 291.011 262.587L287.66 260.229C287.346 260.008 286.872 259.984 286.6 260.175L283.218 262.554C282.946 262.746 282.981 263.081 283.294 263.301L286.645 265.659C286.959 265.88 287.433 265.904 287.705 265.713Z" fill="#28283C"/>
<path d="M282.482 269.389L285.864 267.009C286.136 266.817 286.101 266.483 285.788 266.262L282.436 263.904C282.123 263.684 281.648 263.66 281.377 263.851L277.995 266.231C277.723 266.423 277.757 266.757 278.071 266.978L281.422 269.335C281.736 269.556 282.21 269.58 282.482 269.389Z" fill="#28283C"/>
<path d="M277.259 273.065L280.641 270.685C280.913 270.493 280.878 270.159 280.565 269.938L277.214 267.58C276.9 267.359 276.425 267.336 276.154 267.527L272.772 269.906C272.5 270.098 272.534 270.432 272.848 270.652L276.199 273.011C276.513 273.231 276.987 273.256 277.259 273.065Z" fill="#28283C"/>
<path d="M272.035 276.74L275.418 274.36C275.689 274.168 275.654 273.834 275.341 273.614L271.99 271.256C271.677 271.035 271.202 271.011 270.93 271.202L267.548 273.582C267.276 273.774 267.311 274.108 267.624 274.328L270.975 276.686C271.289 276.907 271.764 276.931 272.035 276.74Z" fill="#28283C"/>
<path d="M266.812 280.416L270.194 278.035C270.466 277.844 270.432 277.51 270.118 277.289L266.767 274.932C266.453 274.711 265.979 274.687 265.707 274.878L262.325 277.258C262.053 277.45 262.088 277.783 262.401 278.004L265.752 280.362C266.066 280.583 266.54 280.606 266.812 280.416Z" fill="#28283C"/>
<path d="M261.589 284.092L264.971 281.712C265.242 281.52 265.208 281.186 264.895 280.966L261.544 278.608C261.23 278.387 260.756 278.362 260.484 278.553L257.102 280.933C256.83 281.125 256.865 281.459 257.178 281.68L260.529 284.038C260.843 284.259 261.317 284.283 261.589 284.092Z" fill="#28283C"/>
<path d="M256.366 287.767L259.748 285.387C260.02 285.195 259.985 284.861 259.672 284.64L256.321 282.282C256.007 282.062 255.532 282.038 255.261 282.229L251.879 284.608C251.607 284.8 251.641 285.135 251.955 285.356L255.306 287.713C255.62 287.934 256.094 287.958 256.366 287.767Z" fill="#28283C"/>
<path d="M295.678 252.947L299.06 250.567C299.331 250.375 299.297 250.041 298.984 249.821L295.633 247.463C295.319 247.242 294.845 247.218 294.573 247.409L291.191 249.789C290.919 249.981 290.953 250.315 291.267 250.535L294.618 252.893C294.932 253.114 295.406 253.138 295.678 252.947Z" fill="#28283C"/>
<path d="M300.98 249.216L304.362 246.836C304.633 246.645 304.599 246.31 304.285 246.09L300.934 243.731C300.621 243.511 300.146 243.487 299.875 243.678L296.493 246.058C296.221 246.249 296.255 246.584 296.569 246.805L299.92 249.162C300.234 249.383 300.708 249.407 300.98 249.216Z" fill="#28283C"/>
<path d="M306.289 245.479L313.574 240.352C313.845 240.161 313.811 239.828 313.498 239.607L310.147 237.249C309.833 237.028 309.359 237.004 309.087 237.195L301.803 242.321C301.531 242.513 301.565 242.846 301.879 243.067L305.23 245.425C305.544 245.646 306.018 245.67 306.289 245.479Z" fill="#28283C"/>
<path d="M302.578 240.934L308.49 236.775C308.761 236.583 308.727 236.25 308.413 236.029L305.063 233.67C304.749 233.449 304.275 233.427 304.003 233.618L298.091 237.777C297.82 237.969 297.853 238.302 298.167 238.523L301.518 240.881C301.832 241.102 302.306 241.125 302.578 240.934Z" fill="#28283C"/>
<path d="M290.455 256.622L293.837 254.242C294.109 254.051 294.075 253.717 293.762 253.496L290.41 251.138C290.097 250.917 289.622 250.893 289.351 251.084L285.969 253.463C285.697 253.655 285.731 253.99 286.045 254.21L289.396 256.568C289.71 256.79 290.184 256.813 290.455 256.622Z" fill="#28283C"/>
<path d="M285.232 260.298L288.614 257.918C288.885 257.726 288.851 257.392 288.538 257.171L285.187 254.814C284.873 254.593 284.399 254.569 284.127 254.76L280.745 257.139C280.473 257.331 280.508 257.666 280.821 257.886L284.172 260.244C284.486 260.465 284.96 260.489 285.232 260.298Z" fill="#28283C"/>
<path d="M280.008 263.973L283.391 261.593C283.662 261.401 283.628 261.067 283.315 260.846L279.963 258.488C279.65 258.268 279.175 258.244 278.904 258.435L275.522 260.814C275.25 261.006 275.284 261.34 275.598 261.56L278.949 263.919C279.263 264.139 279.737 264.164 280.008 263.973Z" fill="#28283C"/>
<path d="M274.786 267.648L278.168 265.268C278.44 265.076 278.405 264.743 278.092 264.522L274.741 262.164C274.427 261.943 273.952 261.919 273.681 262.11L270.299 264.491C270.027 264.682 270.061 265.016 270.375 265.237L273.726 267.594C274.04 267.816 274.514 267.839 274.786 267.648Z" fill="#28283C"/>
<path d="M269.563 271.325L272.945 268.945C273.216 268.753 273.182 268.42 272.868 268.199L269.518 265.841C269.204 265.62 268.729 265.596 268.458 265.787L265.076 268.167C264.804 268.359 264.839 268.693 265.151 268.913L268.503 271.271C268.817 271.492 269.291 271.516 269.563 271.325Z" fill="#28283C"/>
<path d="M264.339 275L267.721 272.62C267.993 272.428 267.958 272.094 267.645 271.874L264.294 269.516C263.98 269.295 263.506 269.271 263.234 269.462L259.852 271.841C259.58 272.033 259.615 272.368 259.928 272.588L263.279 274.946C263.593 275.167 264.067 275.191 264.339 275Z" fill="#28283C"/>
<path d="M259.116 278.676L262.498 276.295C262.769 276.104 262.735 275.77 262.422 275.549L259.071 273.192C258.757 272.971 258.283 272.947 258.011 273.138L254.629 275.517C254.357 275.709 254.392 276.043 254.705 276.264L258.056 278.622C258.37 278.843 258.844 278.867 259.116 278.676Z" fill="#28283C"/>
<path d="M253.892 282.352L257.275 279.972C257.547 279.78 257.512 279.446 257.199 279.225L253.847 276.867C253.534 276.647 253.059 276.622 252.788 276.814L249.406 279.193C249.133 279.385 249.168 279.719 249.481 279.939L252.833 282.298C253.147 282.518 253.621 282.543 253.892 282.352Z" fill="#28283C"/>
<path d="M248.67 286.027L252.052 283.647C252.324 283.455 252.289 283.121 251.976 282.901L248.625 280.543C248.311 280.322 247.836 280.298 247.565 280.489L244.183 282.869C243.911 283.061 243.945 283.395 244.259 283.616L247.61 285.973C247.924 286.194 248.398 286.218 248.67 286.027Z" fill="#28283C"/>
<path d="M239.383 292.561L246.763 287.368C247.035 287.176 247.001 286.842 246.687 286.621L243.336 284.263C243.023 284.043 242.548 284.019 242.277 284.21L234.897 289.403C234.625 289.595 234.659 289.928 234.973 290.149L238.324 292.507C238.638 292.728 239.112 292.752 239.383 292.561Z" fill="#28283C"/>
<path d="M229.214 285.405L235.443 281.022C235.715 280.83 235.681 280.496 235.367 280.276L232.016 277.918C231.702 277.697 231.228 277.673 230.957 277.864L224.727 282.248C224.456 282.439 224.491 282.773 224.804 282.994L228.155 285.351C228.468 285.572 228.943 285.596 229.214 285.405Z" fill="#28283C"/>
<path d="M281.308 255.903L284.69 253.523C284.962 253.332 284.927 252.997 284.614 252.776L281.263 250.419C280.95 250.198 280.475 250.174 280.203 250.365L276.821 252.745C276.55 252.937 276.584 253.271 276.897 253.492L280.248 255.85C280.562 256.07 281.036 256.094 281.308 255.903Z" fill="#28283C"/>
<path d="M286.661 252.136L290.044 249.756C290.315 249.564 290.281 249.23 289.968 249.01L286.616 246.651C286.303 246.431 285.828 246.406 285.557 246.597L282.175 248.977C281.903 249.169 281.937 249.503 282.251 249.724L285.602 252.082C285.915 252.303 286.39 252.327 286.661 252.136Z" fill="#28283C"/>
<path d="M292.014 248.369L295.396 245.989C295.668 245.797 295.634 245.464 295.321 245.243L291.969 242.885C291.656 242.664 291.181 242.64 290.91 242.831L287.528 245.211C287.256 245.403 287.29 245.736 287.604 245.957L290.955 248.315C291.269 248.536 291.743 248.559 292.014 248.369Z" fill="#28283C"/>
<path d="M297.367 244.602L300.749 242.222C301.021 242.03 300.987 241.696 300.674 241.475L297.322 239.117C297.009 238.897 296.535 238.872 296.263 239.064L292.881 241.443C292.609 241.635 292.643 241.969 292.957 242.189L296.308 244.548C296.622 244.768 297.096 244.793 297.367 244.602Z" fill="#28283C"/>
<path d="M276.085 259.578L279.468 257.199C279.739 257.007 279.704 256.672 279.391 256.452L276.04 254.093C275.727 253.873 275.252 253.849 274.98 254.04L271.598 256.42C271.326 256.611 271.361 256.945 271.674 257.166L275.025 259.524C275.339 259.745 275.814 259.769 276.085 259.578Z" fill="#28283C"/>
<path d="M270.862 263.254L274.244 260.875C274.516 260.683 274.482 260.349 274.168 260.129L270.817 257.77C270.503 257.55 270.029 257.526 269.757 257.717L266.375 260.097C266.103 260.288 266.138 260.622 266.451 260.843L269.802 263.201C270.116 263.422 270.59 263.445 270.862 263.254Z" fill="#28283C"/>
<path d="M265.639 266.93L269.021 264.55C269.292 264.359 269.258 264.025 268.945 263.804L265.594 261.446C265.28 261.226 264.806 261.202 264.534 261.393L261.152 263.772C260.88 263.964 260.915 264.298 261.228 264.518L264.579 266.877C264.893 267.097 265.367 267.121 265.639 266.93Z" fill="#28283C"/>
<path d="M260.415 270.605L263.797 268.226C264.069 268.034 264.035 267.7 263.721 267.48L260.37 265.121C260.057 264.901 259.582 264.876 259.311 265.067L255.929 267.447C255.657 267.639 255.691 267.973 256.004 268.194L259.356 270.552C259.67 270.772 260.144 270.796 260.415 270.605Z" fill="#28283C"/>
<path d="M255.192 274.281L258.575 271.901C258.846 271.709 258.811 271.376 258.498 271.155L255.147 268.797C254.834 268.576 254.359 268.552 254.087 268.744L250.705 271.123C250.434 271.315 250.468 271.648 250.782 271.869L254.132 274.227C254.446 274.448 254.92 274.472 255.192 274.281Z" fill="#28283C"/>
<path d="M249.969 277.956L253.351 275.576C253.623 275.385 253.589 275.05 253.275 274.83L249.924 272.471C249.611 272.251 249.136 272.227 248.864 272.418L245.482 274.798C245.21 274.989 245.245 275.323 245.558 275.544L248.909 277.902C249.223 278.122 249.698 278.147 249.969 277.956Z" fill="#28283C"/>
<path d="M244.746 281.631L248.128 279.252C248.4 279.06 248.366 278.726 248.052 278.506L244.701 276.147C244.387 275.927 243.913 275.903 243.641 276.094L240.259 278.473C239.987 278.665 240.022 278.999 240.335 279.22L243.686 281.578C244 281.798 244.474 281.822 244.746 281.631Z" fill="#28283C"/>
<path d="M239.522 285.307L242.905 282.928C243.176 282.736 243.142 282.402 242.828 282.181L239.477 279.823C239.164 279.602 238.689 279.579 238.418 279.77L235.036 282.149C234.764 282.341 234.798 282.675 235.111 282.896L238.463 285.254C238.777 285.474 239.251 285.498 239.522 285.307Z" fill="#28283C"/>
<path d="M234.299 288.983L237.681 286.604C237.953 286.412 237.919 286.078 237.605 285.857L234.254 283.499C233.941 283.279 233.466 283.254 233.195 283.445L229.812 285.825C229.541 286.016 229.575 286.351 229.888 286.571L233.239 288.93C233.553 289.15 234.027 289.174 234.299 288.983Z" fill="#28283C"/>
<path d="M284.058 246.811L287.441 244.432C287.712 244.24 287.678 243.906 287.365 243.686L284.013 241.327C283.7 241.107 283.226 241.082 282.954 241.273L279.572 243.653C279.3 243.845 279.334 244.179 279.648 244.4L282.999 246.758C283.313 246.978 283.787 247.002 284.058 246.811Z" fill="#28283C"/>
<path d="M289.256 243.153L292.638 240.773C292.91 240.581 292.875 240.248 292.562 240.027L289.21 237.669C288.897 237.448 288.422 237.424 288.151 237.615L284.769 239.996C284.497 240.187 284.531 240.521 284.845 240.742L288.196 243.099C288.51 243.32 288.984 243.344 289.256 243.153Z" fill="#28283C"/>
<path d="M294.453 239.497L297.835 237.117C298.107 236.925 298.073 236.591 297.76 236.371L294.408 234.012C294.094 233.792 293.62 233.768 293.349 233.959L289.967 236.339C289.695 236.53 289.729 236.864 290.042 237.085L293.394 239.443C293.708 239.663 294.182 239.688 294.453 239.497Z" fill="#28283C"/>
<path d="M299.65 235.839L303.032 233.46C303.304 233.268 303.27 232.934 302.957 232.714L299.605 230.355C299.292 230.135 298.817 230.111 298.546 230.302L295.164 232.681C294.892 232.873 294.926 233.207 295.24 233.428L298.59 235.786C298.904 236.006 299.378 236.03 299.65 235.839Z" fill="#28283C"/>
<path d="M294.306 232.078L297.688 229.699C297.96 229.507 297.926 229.173 297.612 228.952L296.504 228.173C296.19 227.952 295.716 227.928 295.445 228.119L292.063 230.5C291.791 230.691 291.825 231.024 292.139 231.245L293.246 232.025C293.56 232.245 294.034 232.269 294.306 232.078Z" fill="#28283C"/>
<path d="M287.524 236.851L290.906 234.471C291.178 234.28 291.143 233.945 290.83 233.725L289.722 232.945C289.408 232.724 288.934 232.701 288.662 232.892L285.28 235.272C285.009 235.463 285.043 235.797 285.356 236.018L286.464 236.797C286.778 237.018 287.252 237.042 287.524 236.851Z" fill="#28283C"/>
<path d="M282.348 240.493L285.73 238.113C286.002 237.921 285.968 237.587 285.654 237.367L284.547 236.588C284.233 236.367 283.758 236.343 283.487 236.534L280.105 238.915C279.833 239.106 279.868 239.44 280.181 239.66L281.288 240.439C281.602 240.66 282.076 240.684 282.348 240.493Z" fill="#28283C"/>
<path d="M277.172 244.136L280.555 241.756C280.826 241.564 280.791 241.23 280.478 241.01L279.371 240.23C279.057 240.009 278.583 239.986 278.311 240.177L274.929 242.557C274.657 242.748 274.691 243.082 275.005 243.303L276.112 244.082C276.426 244.303 276.901 244.327 277.172 244.136Z" fill="#28283C"/>
<path d="M271.997 247.778L275.379 245.398C275.65 245.206 275.617 244.872 275.304 244.652L274.195 243.872C273.882 243.651 273.407 243.627 273.136 243.818L269.753 246.199C269.482 246.39 269.516 246.724 269.829 246.945L270.937 247.724C271.251 247.945 271.725 247.969 271.997 247.778Z" fill="#28283C"/>
<path d="M243.102 268.111L246.484 265.731C246.756 265.539 246.722 265.205 246.408 264.985L245.301 264.205C244.987 263.984 244.512 263.96 244.241 264.151L240.858 266.532C240.587 266.723 240.621 267.057 240.935 267.277L242.043 268.057C242.357 268.278 242.831 268.302 243.102 268.111Z" fill="#28283C"/>
<path d="M237.927 271.753L241.309 269.374C241.581 269.182 241.546 268.848 241.233 268.628L240.125 267.847C239.811 267.627 239.337 267.603 239.065 267.794L235.683 270.174C235.412 270.365 235.446 270.699 235.76 270.92L236.867 271.7C237.181 271.92 237.655 271.944 237.927 271.753Z" fill="#28283C"/>
<path d="M232.751 275.395L236.133 273.015C236.405 272.823 236.371 272.49 236.057 272.269L234.95 271.489C234.636 271.269 234.162 271.245 233.89 271.436L230.508 273.816C230.236 274.007 230.271 274.341 230.584 274.561L231.691 275.341C232.005 275.562 232.48 275.586 232.751 275.395Z" fill="#28283C"/>
<path d="M227.575 279.036L230.958 276.657C231.229 276.465 231.196 276.131 230.882 275.91L229.774 275.131C229.46 274.91 228.986 274.886 228.714 275.077L225.332 277.458C225.061 277.649 225.094 277.983 225.408 278.203L226.515 278.983C226.829 279.203 227.304 279.227 227.575 279.036Z" fill="#28283C"/>
<path d="M278.836 250.487L282.218 248.108C282.49 247.916 282.455 247.581 282.142 247.361L278.791 245.003C278.477 244.782 278.002 244.758 277.731 244.949L274.349 247.329C274.077 247.521 274.111 247.855 274.425 248.075L277.776 250.433C278.09 250.654 278.564 250.678 278.836 250.487Z" fill="#28283C"/>
<path d="M273.612 254.162L276.995 251.781C277.266 251.59 277.231 251.256 276.918 251.035L273.567 248.678C273.254 248.457 272.779 248.433 272.507 248.624L269.125 251.004C268.853 251.196 268.887 251.53 269.201 251.75L272.552 254.108C272.866 254.329 273.34 254.353 273.612 254.162Z" fill="#28283C"/>
<path d="M268.389 257.838L271.771 255.459C272.043 255.267 272.009 254.933 271.695 254.713L268.344 252.354C268.03 252.134 267.556 252.11 267.284 252.301L263.902 254.681C263.63 254.872 263.665 255.206 263.978 255.427L267.329 257.785C267.643 258.005 268.118 258.029 268.389 257.838Z" fill="#28283C"/>
<path d="M263.166 261.513L266.548 259.134C266.819 258.942 266.785 258.608 266.472 258.388L263.121 256.029C262.807 255.809 262.333 255.784 262.061 255.975L258.679 258.355C258.407 258.547 258.442 258.881 258.755 259.102L262.106 261.46C262.42 261.681 262.894 261.705 263.166 261.513Z" fill="#28283C"/>
<path d="M257.943 265.189L261.325 262.81C261.597 262.618 261.562 262.284 261.249 262.064L257.897 259.705C257.584 259.485 257.109 259.46 256.838 259.651L253.456 262.031C253.184 262.222 253.218 262.557 253.532 262.778L256.883 265.136C257.197 265.356 257.671 265.38 257.943 265.189Z" fill="#28283C"/>
<path d="M252.719 268.864L256.101 266.485C256.373 266.293 256.338 265.958 256.025 265.738L252.674 263.38C252.361 263.159 251.886 263.135 251.614 263.326L248.232 265.706C247.961 265.898 247.995 266.232 248.308 266.452L251.659 268.81C251.973 269.031 252.447 269.055 252.719 268.864Z" fill="#28283C"/>
<path d="M247.496 272.54L250.878 270.161C251.15 269.969 251.115 269.636 250.802 269.415L247.451 267.057C247.138 266.836 246.662 266.812 246.391 267.003L243.009 269.383C242.737 269.575 242.772 269.908 243.085 270.129L246.436 272.487C246.75 272.708 247.225 272.732 247.496 272.54Z" fill="#28283C"/>
<path d="M242.273 276.216L245.655 273.837C245.927 273.645 245.893 273.311 245.579 273.09L242.228 270.732C241.914 270.512 241.44 270.488 241.168 270.679L237.786 273.058C237.514 273.25 237.549 273.584 237.862 273.804L241.213 276.163C241.527 276.383 242.001 276.407 242.273 276.216Z" fill="#28283C"/>
<path d="M237.049 279.891L240.432 277.512C240.704 277.32 240.669 276.986 240.356 276.766L237.005 274.407C236.691 274.187 236.216 274.162 235.945 274.353L232.563 276.733C232.29 276.925 232.325 277.259 232.638 277.48L235.99 279.838C236.304 280.059 236.778 280.082 237.049 279.891Z" fill="#28283C"/>
<path d="M308.697 250.94L318.658 243.931C318.93 243.74 318.896 243.405 318.582 243.185L315.231 240.826C314.918 240.606 314.443 240.581 314.171 240.772L304.21 247.782C303.939 247.973 303.973 248.307 304.287 248.528L307.637 250.886C307.951 251.106 308.425 251.131 308.697 250.94Z" fill="#28283C"/>
<path d="M244.529 296.096L254.49 289.086C254.761 288.895 254.727 288.561 254.414 288.341L251.063 285.983C250.749 285.762 250.275 285.737 250.003 285.928L240.042 292.938C239.77 293.13 239.805 293.464 240.118 293.684L243.469 296.042C243.783 296.263 244.257 296.287 244.529 296.096Z" fill="#28283C"/>
<path d="M265.417 289.516L268.799 287.136C269.071 286.944 269.036 286.61 268.723 286.39L264.731 283.581C264.418 283.36 263.943 283.336 263.671 283.527L260.289 285.908C260.017 286.099 260.052 286.433 260.365 286.653L264.357 289.462C264.671 289.683 265.145 289.707 265.417 289.516Z" fill="#28283C"/>
<path d="M303.348 262.823L308.757 259.017C309.029 258.826 308.995 258.492 308.681 258.272L304.689 255.462C304.375 255.241 303.901 255.217 303.629 255.408L298.22 259.215C297.948 259.406 297.982 259.74 298.296 259.961L302.289 262.77C302.603 262.99 303.076 263.014 303.348 262.823Z" fill="#28283C"/>
<path d="M270.45 285.975L275.859 282.169C276.13 281.978 276.097 281.644 275.783 281.423L271.791 278.614C271.477 278.393 271.003 278.369 270.731 278.56L265.322 282.367C265.051 282.558 265.085 282.891 265.398 283.112L269.39 285.921C269.704 286.142 270.178 286.165 270.45 285.975Z" fill="#28283C"/>
<path d="M295.812 268.127L301.221 264.32C301.492 264.129 301.459 263.795 301.145 263.575L297.153 260.765C296.839 260.544 296.365 260.52 296.094 260.711L290.684 264.518C290.412 264.709 290.447 265.043 290.76 265.263L294.753 268.073C295.066 268.293 295.54 268.318 295.812 268.127Z" fill="#28283C"/>
<path d="M296.057 260.738L272.54 277.287C272.248 277.493 272.248 277.826 272.54 278.031L276.61 280.896C276.903 281.101 277.376 281.101 277.667 280.896L301.185 264.346L296.057 260.738Z" fill="#28283C"/>
<path d="M250.819 296.18L247.052 298.831C246.83 298.988 246.858 299.261 247.114 299.442L248.747 300.591C249.004 300.772 249.393 300.792 249.616 300.635L253.383 297.984C253.606 297.828 253.578 297.554 253.321 297.373L251.688 296.223C251.431 296.043 251.042 296.024 250.819 296.18Z" fill="#28283C"/>
<path d="M256.086 292.474L252.318 295.126C252.096 295.282 252.124 295.555 252.38 295.736L254.014 296.885C254.27 297.066 254.659 297.086 254.883 296.93L258.65 294.278C258.872 294.121 258.844 293.848 258.587 293.667L256.954 292.517C256.697 292.337 256.308 292.317 256.086 292.474Z" fill="#28283C"/>
<path d="M261.31 288.798L257.542 291.449C257.319 291.606 257.347 291.88 257.604 292.061L259.238 293.209C259.494 293.39 259.883 293.41 260.106 293.253L263.874 290.603C264.096 290.446 264.068 290.172 263.811 289.991L262.178 288.842C261.921 288.661 261.532 288.642 261.31 288.798Z" fill="#28283C"/>
<path d="M253.202 290.444L249.434 293.095C249.212 293.252 249.24 293.526 249.497 293.707L251.13 294.855C251.386 295.037 251.776 295.057 251.998 294.901L255.766 292.249C255.988 292.093 255.96 291.819 255.703 291.638L254.07 290.488C253.813 290.308 253.424 290.288 253.202 290.444Z" fill="#28283C"/>
<path d="M199.914 191.391C200.171 191.391 200.443 191.298 200.703 191.116C201.502 190.553 201.997 189.28 201.807 188.275C201.715 187.792 201.48 187.428 201.145 187.25C200.775 187.053 200.319 187.11 199.891 187.411C199.092 187.974 198.597 189.248 198.788 190.252C198.879 190.735 199.114 191.099 199.449 191.277C199.594 191.353 199.752 191.391 199.914 191.391ZM200.678 187.576C200.793 187.576 200.902 187.602 201 187.655C201.227 187.775 201.389 188.031 201.454 188.375C201.611 189.203 201.193 190.261 200.521 190.733C200.197 190.962 199.86 191.012 199.594 190.872C199.366 190.752 199.205 190.496 199.14 190.151C198.983 189.324 199.402 188.266 200.073 187.793C200.277 187.65 200.485 187.576 200.678 187.576Z" fill="#42E8DF"/>
<path d="M195.607 194.422C195.865 194.422 196.136 194.329 196.396 194.147C197.195 193.584 197.69 192.311 197.5 191.306C197.409 190.823 197.173 190.459 196.839 190.281C196.468 190.084 196.011 190.142 195.584 190.442C194.785 191.005 194.29 192.279 194.481 193.283C194.572 193.766 194.807 194.13 195.143 194.308C195.287 194.384 195.445 194.422 195.607 194.422ZM196.371 190.607C196.486 190.607 196.595 190.633 196.693 190.687C196.92 190.806 197.082 191.062 197.147 191.406C197.304 192.234 196.886 193.292 196.214 193.764C195.891 193.993 195.552 194.043 195.287 193.904C195.059 193.783 194.898 193.528 194.833 193.182C194.676 192.356 195.095 191.297 195.766 190.824C195.97 190.681 196.178 190.607 196.371 190.607Z" fill="#42E8DF"/>
<path d="M190.35 196.263C190.524 197.18 191.263 197.504 191.999 196.986C192.735 196.468 193.191 195.304 193.017 194.386C192.843 193.469 192.105 193.146 191.368 193.664C190.632 194.182 190.176 195.346 190.35 196.263Z" fill="#42E8DF"/>
<path d="M272.927 138.342L275.23 136.721L275.051 135.423L272.748 137.044L272.927 138.342Z" fill="#42E8DF"/>
<path d="M269.578 140.698L271.882 139.078L271.703 137.779L269.4 139.4L269.578 140.698Z" fill="#42E8DF"/>
<path d="M276.241 136.01L281.293 132.456L281.114 131.157L276.062 134.712L276.241 136.01Z" fill="#42E8DF"/>
<path d="M226.312 180.779C226.686 180.779 227.072 180.647 227.442 180.387L247.626 166.185C248.871 165.308 249.568 163.193 249.178 161.469C248.981 160.601 248.546 159.959 247.952 159.661C247.373 159.372 246.717 159.45 246.104 159.882L225.92 174.085C224.674 174.962 223.978 177.077 224.368 178.799C224.565 179.669 225.001 180.311 225.594 180.608C225.824 180.722 226.066 180.779 226.312 180.779ZM247.235 159.932C247.435 159.932 247.63 159.977 247.815 160.07C248.302 160.313 248.662 160.852 248.828 161.587C249.177 163.129 248.556 165.019 247.444 165.802L227.26 180.005C226.747 180.367 226.205 180.438 225.732 180.199C225.244 179.955 224.884 179.416 224.718 178.682C224.368 177.141 224.989 175.25 226.102 174.467L246.286 160.265C246.599 160.044 246.923 159.932 247.235 159.932Z" fill="#42E8DF"/>
<path d="M276.882 161.864L280.82 159.095L280.667 157.985L276.73 160.756L276.882 161.864Z" fill="#42E8DF"/>
<path d="M273.523 164.229L275.491 162.845L275.338 161.735L273.37 163.121L273.523 164.229Z" fill="#42E8DF"/>
<path d="M276.078 165.283L277.756 164.103L277.603 162.993L275.925 164.173L276.078 165.283Z" fill="#42E8DF"/>
<path d="M273.268 167.26L275.237 165.875L275.084 164.766L273.117 166.151L273.268 167.26Z" fill="#42E8DF"/>
<path d="M270.378 172.147L278.114 166.703L277.961 165.594L270.225 171.038L270.378 172.147Z" fill="#42E8DF"/>
<path d="M264.493 176.287L266.462 174.902L266.309 173.793L264.341 175.178L264.493 176.287Z" fill="#42E8DF"/>
<path d="M267.469 174.193L269.438 172.809L269.285 171.699L267.317 173.084L267.469 174.193Z" fill="#42E8DF"/>
<path d="M259.875 179.537L263.6 176.916L263.448 175.808L259.723 178.428L259.875 179.537Z" fill="#42E8DF"/>
<path d="M257.139 181.463L258.916 180.213L258.763 179.104L256.987 180.353L257.139 181.463Z" fill="#42E8DF"/>
<path d="M251.873 185.169L256.189 182.132L256.037 181.022L251.72 184.06L251.873 185.169Z" fill="#42E8DF"/>
<path d="M246.606 188.875L250.923 185.838L250.771 184.729L246.454 187.766L246.606 188.875Z" fill="#42E8DF"/>
<path d="M276.794 170.485L278.472 169.304L278.318 168.195L276.642 169.375L276.794 170.485Z" fill="#42E8DF"/>
<path d="M273.984 172.462L275.953 171.076L275.8 169.968L273.832 171.352L273.984 172.462Z" fill="#42E8DF"/>
<path d="M274.576 174.898L278.829 171.905L278.676 170.796L274.424 173.789L274.576 174.898Z" fill="#42E8DF"/>
<path d="M271.729 176.901L273.698 175.517L273.545 174.407L271.577 175.792L271.729 176.901Z" fill="#42E8DF"/>
<path d="M268.868 178.914L270.837 177.529L270.684 176.42L268.716 177.805L268.868 178.914Z" fill="#42E8DF"/>
<path d="M264.25 182.164L267.975 179.543L267.823 178.435L264.098 181.055L264.25 182.164Z" fill="#42E8DF"/>
<path d="M262.049 183.713L263.375 182.78L263.223 181.671L261.896 182.604L262.049 183.713Z" fill="#42E8DF"/>
<path d="M257.832 186.681L261.094 184.386L260.941 183.276L257.68 185.572L257.832 186.681Z" fill="#42E8DF"/>
<path d="M256.946 187.304L260.208 185.009L260.055 183.899L256.794 186.195L256.946 187.304Z" fill="#42E8DF"/>
<path d="M264.046 185.16L266.014 183.775L265.861 182.666L263.893 184.051L264.046 185.16Z" fill="#42E8DF"/>
<path d="M261.185 187.175L263.153 185.79L263 184.681L261.032 186.066L261.185 187.175Z" fill="#42E8DF"/>
<path d="M256.566 190.424L260.291 187.804L260.139 186.694L256.414 189.316L256.566 190.424Z" fill="#42E8DF"/>
<path d="M277.41 175.755L279.186 174.506L279.034 173.396L277.258 174.646L277.41 175.755Z" fill="#42E8DF"/>
<path d="M272.145 179.462L276.461 176.425L276.309 175.315L271.992 178.353L272.145 179.462Z" fill="#42E8DF"/>
<path d="M266.877 183.168L271.194 180.131L271.042 179.021L266.725 182.059L266.877 183.168Z" fill="#42E8DF"/>
<path d="M267.198 185.795L269.167 184.41L269.014 183.301L267.046 184.686L267.198 185.795Z" fill="#42E8DF"/>
<path d="M262.58 189.044L266.305 186.424L266.153 185.314L262.428 187.935L262.58 189.044Z" fill="#42E8DF"/>
<path d="M277.577 178.492L279.545 177.107L279.392 175.998L277.424 177.383L277.577 178.492Z" fill="#42E8DF"/>
<path d="M274.714 180.506L276.683 179.121L276.53 178.012L274.563 179.397L274.714 180.506Z" fill="#42E8DF"/>
<path d="M270.097 183.755L273.822 181.135L273.669 180.025L269.944 182.646L270.097 183.755Z" fill="#42E8DF"/>
<path d="M275.547 182.771L279.864 179.734L279.712 178.625L275.395 181.663L275.547 182.771Z" fill="#42E8DF"/>
<path d="M273.272 184.373L274.598 183.44L274.445 182.331L273.119 183.264L273.272 184.373Z" fill="#42E8DF"/>
<path d="M270.991 185.978L272.317 185.045L272.165 183.936L270.839 184.869L270.991 185.978Z" fill="#42E8DF"/>
<path d="M266.775 188.944L270.036 186.649L269.884 185.54L266.623 187.836L266.775 188.944Z" fill="#42E8DF"/>
<path d="M278.292 183.693L280.26 182.309L280.108 181.199L278.14 182.584L278.292 183.693Z" fill="#42E8DF"/>
<path d="M273.674 186.942L277.399 184.322L277.247 183.213L273.522 185.834L273.674 186.942Z" fill="#42E8DF"/>
<path d="M282.675 183.461L284.001 182.528L283.849 181.419L282.523 182.352L282.675 183.461Z" fill="#42E8DF"/>
<path d="M278.459 186.428L281.721 184.133L281.569 183.023L278.307 185.319L278.459 186.428Z" fill="#42E8DF"/>
<path d="M274.152 189.46L277.413 187.164L277.261 186.056L273.999 188.351L274.152 189.46Z" fill="#42E8DF"/>
<path d="M277.083 193.921L284.819 188.477L284.667 187.367L276.931 192.811L277.083 193.921Z" fill="#42E8DF"/>
<path d="M274.109 196.013L276.077 194.629L275.924 193.52L273.957 194.905L274.109 196.013Z" fill="#42E8DF"/>
<path d="M271.028 198.181L272.997 196.797L272.844 195.688L270.877 197.073L271.028 198.181Z" fill="#42E8DF"/>
<path d="M266.411 201.431L270.136 198.81L269.984 197.7L266.259 200.322L266.411 201.431Z" fill="#42E8DF"/>
<path d="M268.885 202.542L270.853 201.157L270.701 200.048L268.732 201.433L268.885 202.542Z" fill="#42E8DF"/>
<path d="M264.267 205.791L267.992 203.17L267.84 202.061L264.115 204.682L264.267 205.791Z" fill="#42E8DF"/>
<path d="M280.369 194.459L281.695 193.526L281.543 192.417L280.217 193.35L280.369 194.459Z" fill="#42E8DF"/>
<path d="M276.153 197.426L279.415 195.131L279.262 194.021L276.001 196.317L276.153 197.426Z" fill="#42E8DF"/>
<path d="M271.845 200.459L275.107 198.163L274.954 197.054L271.692 199.349L271.845 200.459Z" fill="#42E8DF"/>
<path d="M274.311 201.575L278.564 198.584L278.411 197.475L274.159 200.467L274.311 201.575Z" fill="#42E8DF"/>
<path d="M271.464 203.579L273.433 202.194L273.28 201.085L271.312 202.47L271.464 203.579Z" fill="#42E8DF"/>
<path d="M268.602 205.593L270.571 204.207L270.418 203.099L268.451 204.483L268.602 205.593Z" fill="#42E8DF"/>
<path d="M263.985 208.842L267.71 206.22L267.558 205.112L263.832 207.734L263.985 208.842Z" fill="#42E8DF"/>
<path d="M261.031 210.922L263 209.537L262.847 208.428L260.879 209.813L261.031 210.922Z" fill="#42E8DF"/>
<path d="M256.413 214.171L260.137 211.55L259.985 210.44L256.261 213.062L256.413 214.171Z" fill="#42E8DF"/>
<path d="M270.579 209.908L272.548 208.523L272.395 207.414L270.427 208.799L270.579 209.908Z" fill="#42E8DF"/>
<path d="M265.961 213.157L269.686 210.536L269.533 209.428L265.808 212.049L265.961 213.157Z" fill="#42E8DF"/>
<path d="M280.861 202.673L282.829 201.287L282.676 200.179L280.708 201.563L280.861 202.673Z" fill="#42E8DF"/>
<path d="M277.999 204.686L279.968 203.302L279.815 202.192L277.847 203.578L277.999 204.686Z" fill="#42E8DF"/>
<path d="M273.381 207.936L277.106 205.314L276.953 204.205L273.229 206.827L273.381 207.936Z" fill="#42E8DF"/>
<path d="M277.145 202.434L278.921 201.185L278.769 200.075L276.993 201.325L277.145 202.434Z" fill="#42E8DF"/>
<path d="M271.879 206.139L276.196 203.102L276.043 201.993L271.726 205.031L271.879 206.139Z" fill="#42E8DF"/>
<path d="M266.612 209.845L270.929 206.809L270.777 205.699L266.46 208.737L266.612 209.845Z" fill="#42E8DF"/>
<path d="M255.246 217.844L257.214 216.46L257.061 215.351L255.093 216.735L255.246 217.844Z" fill="#42E8DF"/>
<path d="M250.628 221.095L254.353 218.474L254.2 217.365L250.475 219.987L250.628 221.095Z" fill="#42E8DF"/>
<path d="M262.514 212.73L265.776 210.435L265.623 209.325L262.361 211.621L262.514 212.73Z" fill="#42E8DF"/>
<path d="M258.206 215.762L261.468 213.466L261.316 212.357L258.054 214.653L258.206 215.762Z" fill="#42E8DF"/>
<g opacity="0.152066">
<path d="M279.869 206.201L281.212 205.257L281.058 204.133L279.715 205.078L279.869 206.201Z" fill="#42E8DF"/>
<path d="M277.561 207.826L278.903 206.882L278.749 205.758L277.406 206.703L277.561 207.826Z" fill="#42E8DF"/>
<path d="M273.291 210.83L276.594 208.506L276.439 207.383L273.137 209.707L273.291 210.83Z" fill="#42E8DF"/>
<path d="M272.394 211.461L275.697 209.137L275.542 208.014L272.24 210.338L272.394 211.461Z" fill="#42E8DF"/>
</g>
</g>
</svg>
