<svg width="25" height="14" viewBox="0 0 25 14" fill="none" xmlns="http://www.w3.org/2000/svg">
<path d="M19.5 12V14H7.5V12C7.5 12 7.5 8 13.5 8C19.5 8 19.5 12 19.5 12ZM16.5 3C16.5 2.40666 16.3241 1.82664 15.9944 1.33329C15.6648 0.839943 15.1962 0.455426 14.6481 0.228363C14.0999 0.00129986 13.4967 -0.0581102 12.9147 0.0576455C12.3328 0.173401 11.7982 0.459123 11.3787 0.878681C10.9591 1.29824 10.6734 1.83279 10.5576 2.41473C10.4419 2.99667 10.5013 3.59987 10.7284 4.14805C10.9554 4.69623 11.3399 5.16477 11.8333 5.49441C12.3266 5.82405 12.9067 6 13.5 6C14.2956 6 15.0587 5.68393 15.6213 5.12132C16.1839 4.55871 16.5 3.79565 16.5 3ZM19.7 8.06C20.2466 8.5643 20.6873 9.17244 20.9964 9.84891C21.3054 10.5254 21.4766 11.2566 21.5 12V14H24.5V12C24.5 12 24.5 8.55 19.7 8.06ZM18.5 1.1415e-06C18.1979 0.000181955 17.8976 0.0474144 17.61 0.140001C18.1951 0.97897 18.5087 1.97718 18.5087 3C18.5087 4.02282 18.1951 5.02103 17.61 5.86C17.8976 5.95259 18.1979 5.99982 18.5 6C19.2956 6 20.0587 5.68393 20.6213 5.12132C21.1839 4.55871 21.5 3.79565 21.5 3C21.5 2.20435 21.1839 1.44129 20.6213 0.878681C20.0587 0.316072 19.2956 1.1415e-06 18.5 1.1415e-06ZM8.5 5H5.5V2H3.5V5H0.5V7H3.5V10H5.5V7H8.5V5Z" fill="#3E3693"/>
</svg>
