<svg width="15" height="14" viewBox="0 0 15 14" fill="none" xmlns="http://www.w3.org/2000/svg">
<path d="M7.5 14C7.21667 14 6.979 13.904 6.787 13.712C6.595 13.52 6.49934 13.2827 6.5 13V8H1.5C1.21667 8 0.979004 7.904 0.787004 7.712C0.595004 7.52 0.499337 7.28267 0.500003 7C0.500003 6.71667 0.596004 6.479 0.788004 6.287C0.980004 6.095 1.21734 5.99934 1.5 6H6.5V1C6.5 0.71667 6.596 0.479004 6.788 0.287004C6.98 0.0950036 7.21734 -0.000663206 7.5 3.4602e-06C7.78334 3.4602e-06 8.021 0.0960036 8.213 0.288004C8.405 0.480004 8.50067 0.717337 8.5 1V6H13.5C13.7833 6 14.021 6.096 14.213 6.288C14.405 6.48 14.5007 6.71734 14.5 7C14.5 7.28334 14.404 7.521 14.212 7.713C14.02 7.905 13.7827 8.00067 13.5 8H8.5V13C8.5 13.2833 8.404 13.521 8.212 13.713C8.02 13.905 7.78267 14.0007 7.5 14Z" fill="white"/>
</svg>
