<svg width="17" height="16" viewBox="0 0 17 16" fill="none" xmlns="http://www.w3.org/2000/svg">
<path d="M8.5 11.575C8.36667 11.575 8.24167 11.5543 8.125 11.513C8.00834 11.4717 7.9 11.4007 7.8 11.3L4.2 7.7C4.01667 7.51667 3.925 7.28334 3.925 7C3.925 6.71667 4.01667 6.48334 4.2 6.3C4.38333 6.11667 4.621 6.021 4.913 6.013C5.205 6.005 5.44234 6.09234 5.625 6.275L7.5 8.15V1C7.5 0.71667 7.596 0.479004 7.788 0.287004C7.98 0.0950036 8.21734 -0.000663206 8.5 3.4602e-06C8.78334 3.4602e-06 9.021 0.0960036 9.213 0.288004C9.405 0.480004 9.50067 0.717337 9.5 1V8.15L11.375 6.275C11.5583 6.09167 11.796 6.004 12.088 6.012C12.38 6.02 12.6173 6.116 12.8 6.3C12.9833 6.48334 13.075 6.71667 13.075 7C13.075 7.28334 12.9833 7.51667 12.8 7.7L9.2 11.3C9.1 11.4 8.99167 11.471 8.875 11.513C8.75834 11.555 8.63334 11.5757 8.5 11.575ZM2.5 16C1.95 16 1.479 15.804 1.087 15.412C0.695002 15.02 0.499335 14.5493 0.500002 14V12C0.500002 11.7167 0.596002 11.479 0.788002 11.287C0.980002 11.095 1.21733 10.9993 1.5 11C1.78333 11 2.021 11.096 2.213 11.288C2.405 11.48 2.50067 11.7173 2.5 12V14H14.5V12C14.5 11.7167 14.596 11.479 14.788 11.287C14.98 11.095 15.2173 10.9993 15.5 11C15.7833 11 16.021 11.096 16.213 11.288C16.405 11.48 16.5007 11.7173 16.5 12V14C16.5 14.55 16.304 15.021 15.912 15.413C15.52 15.805 15.0493 16.0007 14.5 16H2.5Z" fill="white"/>
</svg>
