<svg width="20" height="19" viewBox="0 0 20 19" fill="none" xmlns="http://www.w3.org/2000/svg">
<path d="M4.5 5H3.5C2.96957 5 2.46086 5.21071 2.08579 5.58579C1.71071 5.96086 1.5 6.46957 1.5 7V16C1.5 16.5304 1.71071 17.0391 2.08579 17.4142C2.46086 17.7893 2.96957 18 3.5 18H12.5C13.0304 18 13.5391 17.7893 13.9142 17.4142C14.2893 17.0391 14.5 16.5304 14.5 16V15" stroke="#3E3693" stroke-width="2" stroke-linecap="round" stroke-linejoin="round"/>
<path d="M13.5 3.00011L16.5 6.00011M17.885 4.58511C18.2788 4.19126 18.5001 3.65709 18.5001 3.10011C18.5001 2.54312 18.2788 2.00895 17.885 1.61511C17.4912 1.22126 16.957 1 16.4 1C15.843 1 15.3088 1.22126 14.915 1.61511L6.5 10.0001V13.0001H9.5L17.885 4.58511Z" stroke="#3E3693" stroke-width="2" stroke-linecap="round" stroke-linejoin="round"/>
</svg>
