<svg width="21" height="20" viewBox="0 0 21 20" fill="none" xmlns="http://www.w3.org/2000/svg">
<path d="M14 8C16.5 8 18.5 10 18.5 12.5C18.5 13.38 18.25 14.21 17.81 14.9L20.89 18L19.5 19.39L16.38 16.32C15.69 16.75 14.87 17 14 17C11.5 17 9.5 15 9.5 12.5C9.5 10 11.5 8 14 8ZM14 10C13.337 10 12.7011 10.2634 12.2322 10.7322C11.7634 11.2011 11.5 11.837 11.5 12.5C11.5 13.163 11.7634 13.7989 12.2322 14.2678C12.7011 14.7366 13.337 15 14 15C14.663 15 15.2989 14.7366 15.7678 14.2678C16.2366 13.7989 16.5 13.163 16.5 12.5C16.5 11.837 16.2366 11.2011 15.7678 10.7322C15.2989 10.2634 14.663 10 14 10ZM8.5 0C9.56087 0 10.5783 0.421427 11.3284 1.17157C12.0786 1.92172 12.5 2.93913 12.5 4C12.5 4.91 12.19 5.75 11.68 6.43C10.82 6.75 10.05 7.26 9.41 7.9L8.5 8C7.43913 8 6.42172 7.57857 5.67157 6.82843C4.92143 6.07828 4.5 5.06087 4.5 4C4.5 2.93913 4.92143 1.92172 5.67157 1.17157C6.42172 0.421427 7.43913 0 8.5 0ZM0.5 16V14C0.5 11.88 3.81 10.14 8 10C7.68 10.78 7.5 11.62 7.5 12.5C7.5 13.79 7.88 15 8.5 16H0.5Z" fill="#9F9F9F"/>
</svg>
